<?xml version="1.0" encoding="UTF-8"?>
<svg version="1.1" viewBox="0 0 240 170" xmlns="http://www.w3.org/2000/svg">
	<title>Op-amp symbol</title>
	<rect width="240" height="170" fill="#fff"/>
	<g fill="none" stroke="#000" stroke-width="2">
		<polygon points="80,47 152,85 80 123"/>
		<line x1="62" y1="71" x2="80" y2="71"/>
		<line x1="62" y1="99" x2="80" y2="99"/>
		<line x1="95" y1="66" x2="95" y2="76"/>
		<line x1="90" y1="71" x2="100" y2="71"/>
		<line x1="90" y1="99" x2="100" y2="99"/>
		<line x1="116" y1="48" x2="116" y2="66"/>
		<line x1="116" y1="104" x2="116" y2="122"/>
		<line x1="152" y1="85" x2="170" y2="85"/>
		<circle cx="59" cy="71" r="3"/>
		<circle cx="59" cy="99" r="3"/>
		<circle cx="116" cy="125" r="3"/>
		<circle cx="116" cy="45" r="3"/>
		<circle cx="173" cy="85" r="3"/>
	</g>
	<g fill="#000" font-family="sans" font-size="16px">
		<text text-anchor="middle">
			<tspan x="121" y="31" dy="0">V<tspan dx="-1" dy="4" font-size="12px">S+</tspan></tspan>
			<tspan x="121" y="146" dy="0">V<tspan dx="-1" dy="4" font-size="12px">S−</tspan></tspan>
		</text>
		<text text-anchor="start">
			<tspan x="181" y="90" dy="0">V<tspan dy="4" font-size="12px">OUT</tspan></tspan>
		</text>
		<text text-anchor="start">
			<tspan x="30" y="76" dy="0">V<tspan dx="-1" dy="0">+</tspan></tspan>
			<tspan x="30" y="105" dx="0 -1" dy="0">V−</tspan>
		</text>
	</g>
</svg>
